# Blender v2.81 (sub 14) OBJ File: ''
# www.blender.org
mtllib vitrine.mtl
o Würfel
v -0.164101 -0.000000 1.000000
v -0.164101 2.000000 1.000000
v -0.164101 2.000000 -1.000000
v -0.164101 0.000000 -1.000000
v 1.000000 -0.000000 1.000000
v 1.000000 0.878691 1.000000
v 0.151173 2.000000 1.000000
v 0.151173 2.000000 -1.000000
v 1.000000 0.878691 -1.000000
v 1.000000 0.000000 -1.000000
v 0.916693 0.988740 -0.861975
v 0.234480 1.889951 -0.861975
v 0.140781 1.819021 -0.861975
v 0.822994 0.917811 -0.861975
v 0.234480 1.889951 0.861975
v 0.916693 0.988740 0.861975
v 0.140781 1.819021 0.861975
v 0.822994 0.917811 0.861975
vt 0.427400 0.387600
vt 0.387600 0.387600
vt 0.387600 0.427400
vt 0.427400 0.427400
vt 0.427600 0.427400
vt 0.427600 0.409914
vt 0.442038 0.387600
vt 0.447400 0.387600
vt 0.447400 0.427400
vt 0.427400 0.447400
vt 0.387600 0.447400
vt 0.387600 0.442038
vt 0.409914 0.427600
vt 0.427400 0.427600
vt 0.467400 0.387600
vt 0.447600 0.387600
vt 0.447600 0.427400
vt 0.467400 0.427400
vt 0.427400 0.467400
vt 0.427400 0.447600
vt 0.387600 0.447600
vt 0.387600 0.467400
vt 0.467400 0.447400
vt 0.467400 0.427600
vt 0.457600 0.427600
vt 0.457600 0.447400
vt 0.427400 0.487400
vt 0.427400 0.477600
vt 0.387600 0.477600
vt 0.387600 0.487400
vt 0.467400 0.467400
vt 0.467400 0.447600
vt 0.457600 0.447600
vt 0.457600 0.467400
vt 0.387600 0.477400
vt 0.427400 0.477400
vt 0.427400 0.467600
vt 0.387600 0.467600
vt 0.477400 0.407400
vt 0.477400 0.387600
vt 0.467600 0.387600
vt 0.467600 0.407400
vt 0.427600 0.487400
vt 0.467400 0.487400
vt 0.467400 0.477600
vt 0.427600 0.477600
vt 0.447400 0.467400
vt 0.447400 0.427600
vt 0.427600 0.427600
vt 0.427600 0.467400
vt 0.427600 0.477400
vt 0.467400 0.477400
vt 0.467400 0.467600
vt 0.427600 0.467600
vt 0.457400 0.467400
vt 0.457400 0.427600
vt 0.447600 0.427600
vt 0.447600 0.467400
vt 0.467600 0.417400
vt 0.487400 0.417400
vt 0.487400 0.407600
vt 0.467600 0.407600
vn -1.0000 0.0000 0.0000
vn 0.0000 -0.0000 1.0000
vn 0.0000 0.0000 -1.0000
vn 0.0000 -1.0000 -0.0000
vn 1.0000 0.0000 0.0000
vn 0.0000 1.0000 0.0000
vn 0.7973 0.6036 0.0000
vn -0.6036 0.7973 0.0000
vn 0.6036 -0.7973 -0.0000
usemtl None
s 1
f 1/1/1 2/2/1 3/3/1 4/4/1
f 5/5/2 6/6/2 7/7/2 2/8/2 1/9/2
f 4/10/3 3/11/3 8/12/3 9/13/3 10/14/3
f 4/15/4 10/16/4 5/17/4 1/18/4
f 10/19/5 9/20/5 6/21/5 5/22/5
f 11/23/2 12/24/2 13/25/2 14/26/2
f 8/27/6 3/28/6 2/29/6 7/30/6
f 12/31/7 11/32/7 9/33/7 8/34/7
f 15/35/7 12/36/7 8/37/7 7/38/7
f 16/39/7 15/40/7 7/41/7 6/42/7
f 11/43/7 16/44/7 6/45/7 9/46/7
f 13/47/7 17/48/7 18/49/7 14/50/7
f 16/51/8 11/52/8 14/53/8 18/54/8
f 12/55/9 15/56/9 17/57/9 13/58/9
f 15/59/3 16/60/3 18/61/3 17/62/3
