# Blender v2.80 (sub 75) OBJ File: 'vitrine.blend'
# www.blender.org
mtllib vitrine.mtl
o Würfel
v -0.164101 0.000000 1.000000
v -0.164101 2.000000 1.000000
v -0.164101 0.000000 -1.000000
v -0.164101 2.000000 -1.000000
v 1.000000 0.000000 1.000000
v 1.000000 0.000000 -1.000000
v 0.916693 0.988740 0.861975
v 0.234480 1.889951 0.861975
v 0.234480 1.889951 -0.861975
v 0.916693 0.988740 -0.861975
v 1.000000 0.878691 -1.000000
v 0.151173 2.000000 -1.000000
v 0.151173 2.000000 1.000000
v 1.000000 0.878691 1.000000
v 0.822994 0.917811 -0.861975
v 0.140781 1.819021 -0.861975
v 0.140781 1.819021 0.861975
v 0.822994 0.917811 0.861975
vt 0.375000 0.000000
vt 0.625000 0.000000
vt 0.625000 0.250000
vt 0.375000 0.250000
vt 0.375000 0.750000
vt 0.518897 0.750000
vt 0.625000 0.856103
vt 0.625000 1.000000
vt 0.375000 1.000000
vt 0.625000 0.393897
vt 0.518897 0.500000
vt 0.375000 0.500000
vt 0.125000 0.500000
vt 0.125000 0.750000
vt 0.539723 0.517253
vt 0.710277 0.517253
vt 0.710277 0.517253
vt 0.539723 0.517253
vt 0.731103 0.500000
vt 0.875000 0.500000
vt 0.875000 0.750000
vt 0.731103 0.750000
vt 0.710277 0.732747
vt 0.539723 0.732747
vt 0.710277 0.732747
vt 0.539723 0.732747
vn -1.0000 0.0000 0.0000
vn 0.0000 0.0000 1.0000
vn 0.0000 0.0000 -1.0000
vn 0.0000 -1.0000 0.0000
vn 1.0000 0.0000 0.0000
vn 0.0000 1.0000 0.0000
vn 0.7973 0.6036 0.0000
vn -0.6036 0.7973 0.0000
vn 0.6036 -0.7973 0.0000
usemtl None
s off
f 1/1/1 2/2/1 4/3/1 3/4/1
f 5/5/2 14/6/2 13/7/2 2/8/2 1/9/2
f 3/4/3 4/3/3 12/10/3 11/11/3 6/12/3
f 3/13/4 6/12/4 5/5/4 1/14/4
f 6/12/5 11/11/5 14/6/5 5/5/5
f 10/15/2 9/16/2 16/17/2 15/18/2
f 12/19/6 4/20/6 2/21/6 13/22/6
f 9/16/7 10/15/7 11/11/7 12/19/7
f 8/23/7 9/16/7 12/19/7 13/22/7
f 7/24/7 8/23/7 13/22/7 14/6/7
f 10/15/7 7/24/7 14/6/7 11/11/7
f 16/17/7 17/25/7 18/26/7 15/18/7
f 7/24/8 10/15/8 15/18/8 18/26/8
f 9/16/9 8/23/9 17/25/9 16/17/9
f 8/23/3 7/24/3 18/26/3 17/25/3
