# Blender v2.81 (sub 16) OBJ File: 'Becher.blend'
# www.blender.org
mtllib Becher.mtl
o Cylinder
v 0.000000 -0.045000 -0.040000
v 0.000000 0.045000 -0.034768
v 0.025712 -0.045000 -0.030642
v 0.022348 0.045000 -0.026634
v 0.039392 -0.045000 -0.006946
v 0.034240 0.045000 -0.006037
v 0.034641 -0.045000 0.020000
v 0.030110 0.045000 0.017384
v 0.013681 -0.045000 0.037588
v 0.011891 0.045000 0.032671
v -0.013681 -0.045000 0.037588
v -0.011891 0.045000 0.032671
v -0.034641 -0.045000 0.020000
v -0.030110 0.045000 0.017384
v -0.039392 -0.045000 -0.006946
v -0.034240 0.045000 -0.006037
v -0.025712 -0.045000 -0.030642
v -0.022348 0.045000 -0.026634
v 0.025712 0.045000 -0.030642
v 0.000000 0.045000 -0.040000
v 0.039392 0.045000 -0.006946
v 0.034641 0.045000 0.020000
v 0.013681 0.045000 0.037588
v -0.013681 0.045000 0.037588
v -0.034641 0.045000 0.020000
v -0.039392 0.045000 -0.006946
v -0.025712 0.045000 -0.030642
v 0.022348 0.018337 -0.026634
v 0.000000 0.018337 -0.034768
v 0.034240 0.018337 -0.006037
v 0.030110 0.018337 0.017384
v 0.011891 0.018337 0.032671
v -0.011891 0.018337 0.032671
v -0.030110 0.018337 0.017384
v -0.034240 0.018337 -0.006037
v -0.022348 0.018337 -0.026634
v -0.002837 -0.002837 0.050462
v -0.002837 0.002837 0.050462
v -0.002837 -0.002837 0.037013
v -0.002837 0.002837 0.037013
v 0.002837 -0.002837 0.050462
v 0.002837 0.002837 0.050462
v 0.002837 -0.002837 0.037013
v 0.002837 0.002837 0.037013
v -0.002837 -0.002837 0.055808
v -0.002837 0.002837 0.055808
v 0.002837 0.002837 0.055808
v 0.002837 -0.002837 0.055808
v 0.002837 0.030473 0.050462
v -0.002837 0.030473 0.050462
v 0.002837 0.030473 0.055808
v -0.002837 0.030473 0.055808
v 0.002837 0.035326 0.050462
v -0.002837 0.035326 0.050462
v 0.002837 0.035326 0.055808
v -0.002837 0.035326 0.055808
v 0.002837 0.030473 0.036608
v -0.002837 0.030473 0.036608
v 0.002837 0.035326 0.036608
v -0.002837 0.035326 0.036608
v 0.000000 0.017922 -0.040000
v 0.025712 0.017922 -0.030642
v 0.039392 0.017922 -0.006946
v 0.034641 0.017922 0.020000
v 0.013681 0.017922 0.037588
v -0.013681 0.017922 0.037588
v -0.034641 0.017922 0.020000
v -0.039392 0.017922 -0.006946
v -0.025712 0.017922 -0.030642
vt 0.920097 0.826211
vt 0.909044 0.826211
vt 0.909044 0.837264
vt 0.920097 0.837264
vt 0.942519 0.809395
vt 0.931465 0.809395
vt 0.931465 0.820448
vt 0.942519 0.820448
vt 0.953729 0.820606
vt 0.942676 0.820606
vt 0.942676 0.831659
vt 0.953729 0.831659
vt 0.942519 0.820606
vt 0.931465 0.820606
vt 0.931465 0.831659
vt 0.942519 0.831659
vt 0.953729 0.809395
vt 0.942676 0.809395
vt 0.942676 0.820448
vt 0.953729 0.820448
vt 0.953729 0.798184
vt 0.942676 0.798184
vt 0.942676 0.809238
vt 0.953729 0.809238
vt 0.953729 0.786973
vt 0.942676 0.786973
vt 0.942676 0.798027
vt 0.953729 0.798027
vt 0.931308 0.826054
vt 0.931308 0.820606
vt 0.909044 0.820606
vt 0.909044 0.826054
vt 0.953729 0.775763
vt 0.942676 0.775763
vt 0.942676 0.786816
vt 0.953729 0.786816
vt 0.953729 0.764552
vt 0.942676 0.764552
vt 0.942676 0.775606
vt 0.953729 0.775606
vt 0.037280 0.270607
vt 0.042327 0.276530
vt 0.042327 0.284263
vt 0.037280 0.290186
vt 0.029548 0.291529
vt 0.022748 0.287663
vt 0.020063 0.280397
vt 0.022748 0.273131
vt 0.029548 0.269264
vt 0.962137 0.809238
vt 0.962137 0.798184
vt 0.959492 0.798184
vt 0.959492 0.809238
vt 0.931465 0.842870
vt 0.942519 0.842870
vt 0.942519 0.840224
vt 0.931465 0.840224
vt 0.962137 0.798027
vt 0.962137 0.786973
vt 0.959492 0.786973
vt 0.959492 0.798027
vt 0.920254 0.834462
vt 0.931308 0.834462
vt 0.931308 0.831816
vt 0.920254 0.831816
vt 0.962137 0.820448
vt 0.962137 0.809395
vt 0.959492 0.809395
vt 0.959492 0.820448
vt 0.942676 0.840067
vt 0.953729 0.840067
vt 0.953729 0.837422
vt 0.942676 0.837422
vt 0.964940 0.809238
vt 0.964940 0.798184
vt 0.962295 0.798184
vt 0.962295 0.809238
vt 0.942676 0.842870
vt 0.953729 0.842870
vt 0.953729 0.840224
vt 0.942676 0.840224
vt 0.964940 0.820448
vt 0.964940 0.809395
vt 0.962295 0.809395
vt 0.962295 0.820448
vt 0.042327 0.306684
vt 0.037280 0.312607
vt 0.029548 0.313950
vt 0.022748 0.310084
vt 0.020063 0.302818
vt 0.022748 0.295552
vt 0.029548 0.291686
vt 0.037280 0.293028
vt 0.042327 0.298952
vt 0.908887 0.837264
vt 0.908887 0.831816
vt 0.886622 0.831816
vt 0.886622 0.837264
vt 0.959335 0.764552
vt 0.953887 0.764552
vt 0.953887 0.786816
vt 0.959335 0.786816
vt 0.953729 0.837264
vt 0.953729 0.831816
vt 0.931465 0.831816
vt 0.931465 0.837264
vt 0.959335 0.786973
vt 0.953887 0.786973
vt 0.953887 0.809238
vt 0.959335 0.809238
vt 0.908887 0.842870
vt 0.908887 0.837422
vt 0.886622 0.837422
vt 0.886622 0.842870
vt 0.959335 0.809395
vt 0.953887 0.809395
vt 0.953887 0.831659
vt 0.959335 0.831659
vt 0.931308 0.842870
vt 0.931308 0.837422
vt 0.909044 0.837422
vt 0.909044 0.842870
vt 0.964940 0.764552
vt 0.959492 0.764552
vt 0.959492 0.786816
vt 0.964940 0.786816
vt 0.959335 0.842870
vt 0.959335 0.840224
vt 0.953887 0.840224
vt 0.953887 0.842870
vt 0.962137 0.837422
vt 0.959492 0.837422
vt 0.959492 0.840067
vt 0.962137 0.840067
vt 0.964940 0.820606
vt 0.962295 0.820606
vt 0.962295 0.826054
vt 0.964940 0.826054
vt 0.964940 0.837422
vt 0.962295 0.837422
vt 0.962295 0.840067
vt 0.964940 0.840067
vt 0.959335 0.840067
vt 0.959335 0.837422
vt 0.953887 0.837422
vt 0.953887 0.840067
vt 0.962137 0.831816
vt 0.959492 0.831816
vt 0.959492 0.837264
vt 0.962137 0.837264
vt 0.925703 0.829014
vt 0.923057 0.829014
vt 0.923057 0.831659
vt 0.925703 0.831659
vt 0.922900 0.829014
vt 0.920254 0.829014
vt 0.920254 0.831659
vt 0.922900 0.831659
vt 0.931308 0.837264
vt 0.931308 0.834619
vt 0.920254 0.834619
vt 0.920254 0.837264
vt 0.925703 0.826211
vt 0.923057 0.826211
vt 0.923057 0.828856
vt 0.925703 0.828856
vt 0.922900 0.826211
vt 0.920254 0.826211
vt 0.920254 0.828856
vt 0.922900 0.828856
vt 0.962137 0.820606
vt 0.959492 0.820606
vt 0.959492 0.831659
vt 0.962137 0.831659
vt 0.942519 0.840067
vt 0.942519 0.837422
vt 0.931465 0.837422
vt 0.931465 0.840067
vt 0.964940 0.786973
vt 0.962295 0.786973
vt 0.962295 0.798027
vt 0.964940 0.798027
vt 0.931308 0.829014
vt 0.928662 0.829014
vt 0.928662 0.831659
vt 0.931308 0.831659
vt 0.928505 0.829014
vt 0.925860 0.829014
vt 0.925860 0.831659
vt 0.928505 0.831659
vt 0.931308 0.826211
vt 0.928662 0.826211
vt 0.928662 0.828856
vt 0.931308 0.828856
vt 0.959335 0.837264
vt 0.959335 0.834619
vt 0.953887 0.834619
vt 0.953887 0.837264
vt 0.928505 0.826211
vt 0.925860 0.826211
vt 0.925860 0.828856
vt 0.928505 0.828856
vt 0.964940 0.826211
vt 0.962295 0.826211
vt 0.962295 0.831659
vt 0.964940 0.831659
vt 0.959335 0.834462
vt 0.959335 0.831816
vt 0.953887 0.831816
vt 0.953887 0.834462
vt 0.964940 0.831816
vt 0.962295 0.831816
vt 0.962295 0.837264
vt 0.964940 0.837264
vt 0.020063 0.336371
vt 0.042327 0.336371
vt 0.042327 0.325318
vt 0.020063 0.325318
vt 0.053538 0.302739
vt 0.053538 0.280475
vt 0.042484 0.280475
vt 0.042484 0.302739
vt 0.042484 0.313950
vt 0.064748 0.313950
vt 0.064748 0.302896
vt 0.042484 0.302896
vt 0.064748 0.302739
vt 0.064748 0.280475
vt 0.053695 0.280475
vt 0.053695 0.302739
vt 0.020063 0.325161
vt 0.042327 0.325161
vt 0.042327 0.314107
vt 0.020063 0.314107
vt 0.075959 0.291529
vt 0.075959 0.269264
vt 0.064906 0.269264
vt 0.064906 0.291529
vt 0.042484 0.325161
vt 0.064748 0.325161
vt 0.064748 0.314107
vt 0.042484 0.314107
vt 0.075959 0.313950
vt 0.075959 0.291686
vt 0.064906 0.291686
vt 0.064906 0.313950
vt 0.042484 0.280318
vt 0.064748 0.280318
vt 0.064748 0.269264
vt 0.042484 0.269264
vn 0.3420 0.0000 -0.9397
vn 0.8660 0.0000 -0.5000
vn 0.9848 0.0000 0.1736
vn 0.6428 0.0000 0.7660
vn -0.0000 0.0000 1.0000
vn -0.6428 0.0000 0.7660
vn -0.9848 0.0000 0.1736
vn 0.3420 0.0000 0.9397
vn -0.8660 0.0000 -0.5000
vn -0.3420 0.0000 -0.9397
vn 0.0000 -1.0000 -0.0000
vn 0.0000 1.0000 0.0000
vn 0.6428 0.0000 -0.7660
vn -0.9848 0.0000 -0.1736
vn 0.9848 0.0000 -0.1736
vn -0.6428 0.0000 -0.7660
vn -0.3420 0.0000 0.9397
vn 0.8660 0.0000 0.5000
vn 0.0000 0.0000 -1.0000
vn -0.8660 0.0000 0.5000
vn -1.0000 0.0000 0.0000
vn 1.0000 0.0000 0.0000
usemtl Material.001
s off
f 61/1/1 20/2/1 19/3/1 62/4/1
f 62/5/2 19/6/2 21/7/2 63/8/2
f 63/9/3 21/10/3 22/11/3 64/12/3
f 64/13/4 22/14/4 23/15/4 65/16/4
f 65/17/5 23/18/5 24/19/5 66/20/5
f 66/21/6 24/22/6 25/23/6 67/24/6
f 67/25/7 25/26/7 26/27/7 68/28/7
f 2/29/8 18/30/8 36/31/8 29/32/8
f 68/33/9 26/34/9 27/35/9 69/36/9
f 69/37/10 27/38/10 20/39/10 61/40/10
f 1/41/11 3/42/11 5/43/11 7/44/11 9/45/11 11/46/11 13/47/11 15/48/11 17/49/11
f 2/50/12 4/51/12 19/52/12 20/53/12
f 4/54/12 6/55/12 21/56/12 19/57/12
f 6/58/12 8/59/12 22/60/12 21/61/12
f 8/62/12 10/63/12 23/64/12 22/65/12
f 10/66/12 12/67/12 24/68/12 23/69/12
f 12/70/12 14/71/12 25/72/12 24/73/12
f 14/74/12 16/75/12 26/76/12 25/77/12
f 16/78/12 18/79/12 27/80/12 26/81/12
f 18/82/12 2/83/12 20/84/12 27/85/12
f 28/86/12 29/87/12 36/88/12 35/89/12 34/90/12 33/91/12 32/92/12 31/93/12 30/94/12
f 14/95/13 12/96/13 33/97/13 34/98/13
f 8/99/14 6/100/14 30/101/14 31/102/14
f 16/103/15 14/104/15 34/105/15 35/106/15
f 10/107/16 8/108/16 31/109/16 32/110/16
f 4/111/17 2/112/17 29/113/17 28/114/17
f 18/115/18 16/116/18 35/117/18 36/118/18
f 12/119/19 10/120/19 32/121/19 33/122/19
f 6/123/20 4/124/20 28/125/20 30/126/20
f 37/127/21 38/128/21 40/129/21 39/130/21
f 39/131/19 40/132/19 44/133/19 43/134/19
f 43/135/22 44/136/22 42/137/22 41/138/22
f 38/139/21 37/140/21 45/141/21 46/142/21
f 39/143/11 43/144/11 41/145/11 37/146/11
f 44/147/12 40/148/12 38/149/12 42/150/12
f 48/151/5 47/152/5 46/153/5 45/154/5
f 37/155/11 41/156/11 48/157/11 45/158/11
f 47/159/22 42/160/22 49/161/22 51/162/22
f 41/163/22 42/164/22 47/165/22 48/166/22
f 51/167/22 49/168/22 53/169/22 55/170/22
f 38/171/21 46/172/21 52/173/21 50/174/21
f 46/175/5 47/176/5 51/177/5 52/178/5
f 42/179/19 38/180/19 50/181/19 49/182/19
f 53/183/12 54/184/12 56/185/12 55/186/12
f 52/187/5 51/188/5 55/189/5 56/190/5
f 50/191/21 52/192/21 56/193/21 54/194/21
f 53/195/22 49/196/22 57/197/22 59/198/22
f 57/199/19 58/200/19 60/201/19 59/202/19
f 54/203/12 53/204/12 59/205/12 60/206/12
f 50/207/21 54/208/21 60/209/21 58/210/21
f 49/211/11 50/212/11 58/213/11 57/214/11
f 17/215/10 69/216/10 61/217/10 1/218/10
f 15/219/9 68/220/9 69/221/9 17/222/9
f 13/223/7 67/224/7 68/225/7 15/226/7
f 11/227/6 66/228/6 67/229/6 13/230/6
f 9/231/5 65/232/5 66/233/5 11/234/5
f 7/235/4 64/236/4 65/237/4 9/238/4
f 5/239/3 63/240/3 64/241/3 7/242/3
f 3/243/2 62/244/2 63/245/2 5/246/2
f 1/247/1 61/248/1 62/249/1 3/250/1
