# Blender v2.81 (sub 16) OBJ File: 'Marktstand.blend'
# www.blender.org
mtllib Marktstand.mtl
o Cube.002_Cube.005
v 1.200000 0.008572 -1.000000
v 1.180000 0.008572 -1.000000
v 1.200000 0.008572 1.000000
v 1.180000 0.008572 1.000000
v 1.200000 1.808572 -1.000000
v 1.180000 1.808572 -1.000000
v 1.200000 1.808572 1.000000
v 1.180000 1.808572 1.000000
v 0.400000 0.800000 -1.000000
v 0.400000 0.000000 -1.000000
v 0.400000 0.800000 1.000000
v 0.400000 0.000000 1.000000
v -0.400000 0.800000 -1.000000
v -0.400000 0.000000 -1.000000
v -0.400000 0.800000 1.000000
v -0.400000 0.000000 1.000000
v 1.206861 1.790414 -1.000000
v 1.201684 1.771095 -1.000000
v 1.206861 1.790414 1.000000
v 1.201684 1.771095 1.000000
v -0.821584 2.333934 -1.000000
v -0.826760 2.314615 -1.000000
v -0.821584 2.333934 1.000000
v -0.826760 2.314615 1.000000
v -0.010142 -0.003497 -1.000000
v -0.690901 2.300038 -1.000000
v -0.010142 -0.003497 -1.020000
v -0.690901 2.300038 -1.020000
v 0.130901 0.047560 -1.000000
v -0.549858 2.262348 -1.000000
v 0.130901 0.047560 -1.020000
v -0.549858 2.262348 -1.020000
v -0.010142 0.002467 1.020774
v -0.690901 2.300038 1.020774
v -0.010142 0.002467 1.000774
v -0.690901 2.300038 1.000774
v 0.130901 0.053524 1.020774
v -0.549858 2.262348 1.020774
v 0.130901 0.053524 1.000774
v -0.549858 2.262348 1.000774
vt 0.437412 0.437588
vt 0.393626 0.437588
vt 0.393626 0.481373
vt 0.437412 0.481373
vt 0.448402 0.399122
vt 0.443083 0.399122
vt 0.443083 0.442907
vt 0.448402 0.442907
vt 0.481373 0.398946
vt 0.481373 0.393626
vt 0.437588 0.393626
vt 0.437588 0.398946
vt 0.437412 0.393626
vt 0.393626 0.393626
vt 0.393626 0.437412
vt 0.437412 0.437412
vt 0.442907 0.399122
vt 0.437588 0.399122
vt 0.437588 0.442907
vt 0.442907 0.442907
vt 0.481373 0.448402
vt 0.481373 0.443083
vt 0.437588 0.443083
vt 0.437588 0.448402
vt 0.598361 0.401639
vt 0.574549 0.401639
vt 0.574549 0.425451
vt 0.598361 0.425451
vt 0.550451 0.401639
vt 0.526639 0.401639
vt 0.526639 0.425451
vt 0.550451 0.425451
vt 0.550451 0.425594
vt 0.526639 0.425594
vt 0.526639 0.449406
vt 0.550451 0.449406
vt 0.574406 0.401639
vt 0.550594 0.401639
vt 0.550594 0.425451
vt 0.574406 0.425451
vt 0.574406 0.425594
vt 0.550594 0.425594
vt 0.550594 0.449406
vt 0.574406 0.449406
vt 0.550451 0.449549
vt 0.526639 0.449549
vt 0.526639 0.473361
vt 0.550451 0.473361
vt 0.437431 0.437569
vt 0.403069 0.437569
vt 0.403069 0.471931
vt 0.437431 0.471931
vt 0.446056 0.407381
vt 0.441882 0.407381
vt 0.441882 0.441743
vt 0.446056 0.441743
vt 0.471931 0.407243
vt 0.471931 0.403069
vt 0.437569 0.403069
vt 0.437569 0.407243
vt 0.437431 0.403069
vt 0.403069 0.403069
vt 0.403069 0.437431
vt 0.437431 0.437431
vt 0.441743 0.407381
vt 0.437569 0.407381
vt 0.437569 0.441743
vt 0.441743 0.441743
vt 0.471931 0.446056
vt 0.471931 0.441882
vt 0.437569 0.441882
vt 0.437569 0.446056
vt 0.094997 0.469997
vt 0.094997 0.405003
vt 0.088615 0.405003
vt 0.088615 0.469997
vt 0.030003 0.421154
vt 0.081972 0.421154
vt 0.081972 0.405003
vt 0.030003 0.405003
vt 0.088484 0.469997
vt 0.088484 0.405003
vt 0.082102 0.405003
vt 0.082102 0.469997
vt 0.030003 0.437435
vt 0.081972 0.437435
vt 0.081972 0.421284
vt 0.030003 0.421284
vt 0.049410 0.453716
vt 0.049410 0.437565
vt 0.043028 0.437565
vt 0.043028 0.453716
vt 0.030003 0.445575
vt 0.042898 0.445575
vt 0.042898 0.437565
vt 0.030003 0.437565
vt 0.097434 0.472434
vt 0.097434 0.402566
vt 0.090573 0.402566
vt 0.090573 0.472434
vt 0.027566 0.419928
vt 0.083432 0.419928
vt 0.083432 0.402566
vt 0.027566 0.402566
vt 0.090433 0.472434
vt 0.090433 0.402566
vt 0.083573 0.402566
vt 0.083573 0.472434
vt 0.027566 0.437430
vt 0.083432 0.437430
vt 0.083432 0.420068
vt 0.027566 0.420068
vt 0.048428 0.454932
vt 0.048428 0.437570
vt 0.041568 0.437570
vt 0.041568 0.454932
vt 0.027566 0.446181
vt 0.041427 0.446181
vt 0.041427 0.437570
vt 0.027566 0.437570
vn 1.0000 -0.0000 0.0000
vn 0.0000 0.0000 1.0000
vn 0.0000 1.0000 0.0000
vn -1.0000 0.0000 0.0000
vn 0.0000 -1.0000 0.0000
vn 0.0000 0.0000 -1.0000
vn 0.2588 0.9659 0.0000
vn -0.9659 0.2588 0.0000
vn -0.2588 -0.9659 0.0000
vn 0.9659 -0.2588 0.0000
vn -0.9590 -0.2834 0.0000
vn 0.9559 0.2938 0.0000
vn 0.3404 -0.9403 0.0000
vn 0.2582 0.9661 0.0000
vn -0.9588 -0.2841 0.0000
vn 0.9556 0.2945 0.0000
usemtl Material.001
s off
f 1/1/1 5/2/1 7/3/1 3/4/1
f 4/5/2 3/6/2 7/7/2 8/8/2
f 8/9/3 7/10/3 5/11/3 6/12/3
f 6/13/4 2/14/4 4/15/4 8/16/4
f 2/17/5 1/18/5 3/19/5 4/20/5
f 6/21/6 5/22/6 1/23/6 2/24/6
f 9/25/3 13/26/3 15/27/3 11/28/3
f 12/29/2 11/30/2 15/31/2 16/32/2
f 16/33/4 15/34/4 13/35/4 14/36/4
f 14/37/5 10/38/5 12/39/5 16/40/5
f 10/41/1 9/42/1 11/43/1 12/44/1
f 14/45/6 13/46/6 9/47/6 10/48/6
f 17/49/7 21/50/7 23/51/7 19/52/7
f 20/53/2 19/54/2 23/55/2 24/56/2
f 24/57/8 23/58/8 21/59/8 22/60/8
f 22/61/9 18/62/9 20/63/9 24/64/9
f 18/65/10 17/66/10 19/67/10 20/68/10
f 22/69/6 21/70/6 17/71/6 18/72/6
f 25/73/11 26/74/11 28/75/11 27/76/11
f 27/77/6 28/78/6 32/79/6 31/80/6
f 31/81/12 32/82/12 30/83/12 29/84/12
f 29/85/2 30/86/2 26/87/2 25/88/2
f 27/89/13 31/90/13 29/91/13 25/92/13
f 32/93/14 28/94/14 26/95/14 30/96/14
f 33/97/15 34/98/15 36/99/15 35/100/15
f 35/101/6 36/102/6 40/103/6 39/104/6
f 39/105/16 40/106/16 38/107/16 37/108/16
f 37/109/2 38/110/2 34/111/2 33/112/2
f 35/113/13 39/114/13 37/115/13 33/116/13
f 40/117/14 36/118/14 34/119/14 38/120/14
